<svg width="37" height="36" viewBox="0 0 37 36" fill="none" xmlns="http://www.w3.org/2000/svg">
<path d="M31.28 36H5.44C2.42435 36 0 33.6232 0 30.6667V5.33334C0 2.37682 2.42435 0 5.44 0H31.28C34.2956 0 36.72 2.37682 36.72 5.33334V30.6667C36.72 33.6232 34.2365 36 31.28 36Z" fill="#231815"/>
<path d="M18.094 11.6523C18.094 11.6523 21.701 9.50735 23.8888 8.28996C26.0766 7.07256 27.3184 6.66677 28.5601 6.55083C29.8018 6.49285 31.221 7.13054 31.221 7.13054L27.2592 4.69575C27.2592 4.69575 26.7271 4.34793 25.2488 4.52184C23.7705 4.69575 23.0018 5.10155 22.0558 5.56532C21.1097 6.08706 14.7827 9.73923 14.7827 9.73923L18.094 11.6523Z" fill="white"/>
<path d="M27.555 10.029C27.555 10.029 29.388 12.5218 27.9689 16.9276C26.5498 21.3334 23.2385 23.8261 23.002 24C22.8246 24.1739 20.755 25.3334 20.755 25.3334L20.8141 28.8116C20.8141 28.8116 27.4367 26.5507 30.2159 20.2899C32.6994 14.7826 31.1028 11.8261 29.8611 10.5508C29.1515 9.79713 27.555 10.029 27.555 10.029Z" fill="white"/>
<path d="M18.094 28.7536L14.7827 26.8406V9.79712L18.094 11.6522V28.7536Z" fill="white"/>
<path d="M7.98245 23.7682L4.67114 21.7972V4.81165L7.92331 6.60875L7.98245 23.7682Z" fill="white"/>
<path d="M4.67108 21.7972C4.67108 21.7972 3.84326 28.9856 9.81543 31.5943C13.245 33.1016 15.7876 32.232 16.9702 31.0726C17.9163 30.1451 18.0346 28.7538 18.0346 28.7538L14.7232 26.7828C14.7232 26.7828 14.7233 27.4784 14.1911 28.0001C13.5998 28.6378 12.6537 29.2755 10.525 28.232C7.80499 26.8407 7.92325 23.7683 7.92325 23.7683L4.67108 21.7972Z" fill="white"/>
<path d="M7.92392 6.60875L10.5848 5.27541L7.56914 3.65222L4.67175 4.81164L7.92392 6.60875Z" fill="white"/>
</svg>
